<?xml version="1.0" standalone="no"?>
<!DOCTYPE svg PUBLIC "-//W3C//DTD SVG 20010904//EN"
 "http://www.w3.org/TR/2001/REC-SVG-20010904/DTD/svg10.dtd">
<svg version="1.0" xmlns="http://www.w3.org/2000/svg"
 width="225.000000pt" height="225.000000pt" viewBox="0 0 225.000000 225.000000"
 preserveAspectRatio="xMidYMid meet">
<metadata>
Created by potrace 1.15, written by Peter Selinger 2001-2017
</metadata>
<g transform="translate(0.000000,225.000000) scale(0.100000,-0.100000)"
fill="#000000" stroke="none">
<path d="M747 1919 c-90 -12 -210 -53 -269 -91 -69 -44 -143 -129 -170 -196
-19 -49 -23 -75 -23 -187 0 -123 2 -134 29 -193 51 -111 167 -194 337 -241 41
-12 146 -38 234 -60 178 -43 234 -65 284 -107 67 -56 90 -166 52 -249 -87
-191 -471 -220 -841 -63 -52 22 -101 42 -108 45 -9 4 -12 -26 -12 -130 l0
-135 48 -16 c86 -28 249 -64 347 -77 122 -15 356 -7 445 16 177 46 313 145
373 272 31 66 32 72 32 198 0 122 -2 134 -29 192 -34 75 -108 149 -192 191
-72 36 -210 79 -404 125 -169 39 -259 76 -300 123 -87 100 -49 254 79 318 68
35 141 47 282 47 167 0 323 -33 441 -92 21 -11 40 -19 43 -19 3 0 4 57 3 127
l-3 127 -73 22 c-163 50 -450 75 -605 53z"/>
</g>
</svg>
